<mxfile modified="2019-10-23T07:39:46.499Z" host="www.draw.io" agent="Mozilla/5.0 (Windows NT 10.0; Win64; x64) AppleWebKit/537.36 (KHTML, like Gecko) Chrome/77.0.3865.120 Safari/537.36" etag="8dDwPASx1b465uSsF48M" version="12.1.3" type="github" pages="1">
  <diagram id="0OKw5oCpbI4sTwlSxQiJ" name="Page-1">
    <mxGraphModel dx="1038" dy="580" grid="1" gridSize="10" guides="1" tooltips="1" connect="1" arrows="1" fold="1" page="1" pageScale="1" pageWidth="1100" pageHeight="1700" math="0" shadow="0">
      <root>
        <mxCell id="0"/>
        <mxCell id="1" parent="0"/>
        <mxCell id="GNG_iJOhKtFzYr-szhcq-1" value="" style="rounded=0;whiteSpace=wrap;html=1;fillColor=#f5f5f5;strokeColor=#666666;fontColor=#333333;" parent="1" vertex="1">
          <mxGeometry x="40" y="499.5" width="470" height="270" as="geometry"/>
        </mxCell>
        <mxCell id="GNG_iJOhKtFzYr-szhcq-2" value="&lt;b&gt;Student&lt;/b&gt;" style="rounded=0;whiteSpace=wrap;html=1;fillColor=#dae8fc;strokeColor=#6c8ebf;gradientColor=#ffffff;" parent="1" vertex="1">
          <mxGeometry x="80" y="629.5" width="120" height="60" as="geometry"/>
        </mxCell>
        <mxCell id="GNG_iJOhKtFzYr-szhcq-3" value="&lt;b&gt;Faculty&lt;/b&gt;" style="rounded=0;whiteSpace=wrap;html=1;fillColor=#dae8fc;strokeColor=#6c8ebf;gradientColor=#ffffff;" parent="1" vertex="1">
          <mxGeometry x="225" y="629.5" width="120" height="60" as="geometry"/>
        </mxCell>
        <mxCell id="GNG_iJOhKtFzYr-szhcq-6" value="&lt;b&gt;&lt;font style=&quot;font-size: 15px&quot;&gt;Course&amp;nbsp; End&amp;nbsp; Survey Analysis&lt;/font&gt;&lt;/b&gt;" style="text;html=1;strokeColor=none;fillColor=none;align=center;verticalAlign=middle;whiteSpace=wrap;rounded=0;" parent="1" vertex="1">
          <mxGeometry x="125" y="559.5" width="300" height="20" as="geometry"/>
        </mxCell>
        <mxCell id="GNG_iJOhKtFzYr-szhcq-10" value="" style="rounded=0;whiteSpace=wrap;html=1;fillColor=#f5f5f5;strokeColor=#666666;fontColor=#333333;" parent="1" vertex="1">
          <mxGeometry x="630" y="153" width="470" height="360" as="geometry"/>
        </mxCell>
        <mxCell id="GNG_iJOhKtFzYr-szhcq-13" value="&lt;b&gt;&lt;font style=&quot;font-size: 15px&quot;&gt;Student&lt;/font&gt;&lt;/b&gt;" style="text;html=1;strokeColor=none;fillColor=none;align=center;verticalAlign=middle;whiteSpace=wrap;rounded=0;" parent="1" vertex="1">
          <mxGeometry x="715" y="193" width="300" height="20" as="geometry"/>
        </mxCell>
        <mxCell id="GNG_iJOhKtFzYr-szhcq-14" value="" style="rounded=0;whiteSpace=wrap;html=1;gradientColor=#ffffff;" parent="1" vertex="1">
          <mxGeometry x="830" y="258" width="200" height="25" as="geometry"/>
        </mxCell>
        <mxCell id="GNG_iJOhKtFzYr-szhcq-15" value="" style="rounded=0;whiteSpace=wrap;html=1;gradientColor=#ffffff;" parent="1" vertex="1">
          <mxGeometry x="830" y="303" width="200" height="25" as="geometry"/>
        </mxCell>
        <mxCell id="GNG_iJOhKtFzYr-szhcq-18" value="" style="rounded=0;whiteSpace=wrap;html=1;gradientColor=#ffffff;" parent="1" vertex="1">
          <mxGeometry x="830" y="398" width="200" height="25" as="geometry"/>
        </mxCell>
        <mxCell id="GNG_iJOhKtFzYr-szhcq-20" value="&lt;font style=&quot;font-size: 15px&quot;&gt;Name :&lt;/font&gt;" style="text;html=1;strokeColor=none;fillColor=none;align=center;verticalAlign=middle;whiteSpace=wrap;rounded=0;" parent="1" vertex="1">
          <mxGeometry x="673" y="258" width="84" height="25" as="geometry"/>
        </mxCell>
        <mxCell id="GNG_iJOhKtFzYr-szhcq-21" value="&lt;font style=&quot;font-size: 15px&quot;&gt;USN :&lt;/font&gt;" style="text;html=1;strokeColor=none;fillColor=none;align=center;verticalAlign=middle;whiteSpace=wrap;rounded=0;" parent="1" vertex="1">
          <mxGeometry x="675" y="303" width="84" height="25" as="geometry"/>
        </mxCell>
        <mxCell id="GNG_iJOhKtFzYr-szhcq-26" value="&lt;span style=&quot;font-size: 15px&quot;&gt;Sem :&lt;/span&gt;" style="text;html=1;strokeColor=none;fillColor=none;align=center;verticalAlign=middle;whiteSpace=wrap;rounded=0;" parent="1" vertex="1">
          <mxGeometry x="675" y="395.5" width="84" height="25" as="geometry"/>
        </mxCell>
        <mxCell id="GNG_iJOhKtFzYr-szhcq-28" value="" style="rounded=0;whiteSpace=wrap;html=1;fillColor=#f5f5f5;strokeColor=#666666;fontColor=#333333;" parent="1" vertex="1">
          <mxGeometry x="630" y="738.5" width="470" height="231" as="geometry"/>
        </mxCell>
        <mxCell id="GNG_iJOhKtFzYr-szhcq-29" value="&lt;b&gt;&lt;font style=&quot;font-size: 15px&quot;&gt;Faculty&lt;/font&gt;&lt;/b&gt;" style="text;html=1;strokeColor=none;fillColor=none;align=center;verticalAlign=middle;whiteSpace=wrap;rounded=0;" parent="1" vertex="1">
          <mxGeometry x="714.5999755859375" y="769.5" width="300" height="20" as="geometry"/>
        </mxCell>
        <mxCell id="GNG_iJOhKtFzYr-szhcq-30" value="" style="rounded=0;whiteSpace=wrap;html=1;gradientColor=#ffffff;" parent="1" vertex="1">
          <mxGeometry x="829.5999755859375" y="811.5" width="200" height="25" as="geometry"/>
        </mxCell>
        <mxCell id="GNG_iJOhKtFzYr-szhcq-35" value="&lt;font style=&quot;font-size: 15px&quot;&gt;Faculty ID:&amp;nbsp;&lt;/font&gt;" style="text;html=1;strokeColor=none;fillColor=none;align=center;verticalAlign=middle;whiteSpace=wrap;rounded=0;" parent="1" vertex="1">
          <mxGeometry x="710.0999755859375" y="809.5" width="84" height="25" as="geometry"/>
        </mxCell>
        <mxCell id="GNG_iJOhKtFzYr-szhcq-41" value="&lt;b&gt;Submit&lt;/b&gt;" style="rounded=0;whiteSpace=wrap;html=1;fillColor=#dae8fc;strokeColor=#6c8ebf;gradientColor=#ffffff;" parent="1" vertex="1">
          <mxGeometry x="831" y="463" width="80" height="20" as="geometry"/>
        </mxCell>
        <mxCell id="GNG_iJOhKtFzYr-szhcq-42" value="&lt;b&gt;Submit&lt;/b&gt;" style="rounded=0;whiteSpace=wrap;html=1;fillColor=#dae8fc;strokeColor=#6c8ebf;gradientColor=#ffffff;" parent="1" vertex="1">
          <mxGeometry x="824.5" y="904.5" width="80" height="20" as="geometry"/>
        </mxCell>
        <mxCell id="GNG_iJOhKtFzYr-szhcq-58" value="" style="rounded=0;whiteSpace=wrap;html=1;fillColor=#f5f5f5;strokeColor=#666666;fontColor=#333333;" parent="1" vertex="1">
          <mxGeometry x="1196" y="210" width="470" height="250" as="geometry"/>
        </mxCell>
        <mxCell id="GNG_iJOhKtFzYr-szhcq-59" value="&lt;b&gt;&lt;font style=&quot;font-size: 15px&quot;&gt;Courses&lt;/font&gt;&lt;/b&gt;" style="text;html=1;strokeColor=none;fillColor=none;align=center;verticalAlign=middle;whiteSpace=wrap;rounded=0;" parent="1" vertex="1">
          <mxGeometry x="1281" y="230" width="300" height="20" as="geometry"/>
        </mxCell>
        <mxCell id="GNG_iJOhKtFzYr-szhcq-66" value="&lt;b&gt;Course 5&lt;/b&gt;" style="rounded=0;whiteSpace=wrap;html=1;fillColor=#dae8fc;strokeColor=#6c8ebf;gradientColor=#ffffff;" parent="1" vertex="1">
          <mxGeometry x="1456" y="363" width="89" height="35" as="geometry"/>
        </mxCell>
        <mxCell id="GNG_iJOhKtFzYr-szhcq-70" value="&lt;b&gt;Course 4&lt;/b&gt;" style="rounded=0;whiteSpace=wrap;html=1;fillColor=#dae8fc;strokeColor=#6c8ebf;gradientColor=#ffffff;" parent="1" vertex="1">
          <mxGeometry x="1316.5" y="363" width="92" height="38" as="geometry"/>
        </mxCell>
        <mxCell id="GNG_iJOhKtFzYr-szhcq-71" value="&lt;b&gt;Course 1&lt;/b&gt;" style="rounded=0;whiteSpace=wrap;html=1;fillColor=#dae8fc;strokeColor=#6c8ebf;gradientColor=#ffffff;" parent="1" vertex="1">
          <mxGeometry x="1258" y="290" width="89" height="35" as="geometry"/>
        </mxCell>
        <mxCell id="GNG_iJOhKtFzYr-szhcq-72" value="&lt;b&gt;Course 3&lt;/b&gt;" style="rounded=0;whiteSpace=wrap;html=1;fillColor=#dae8fc;strokeColor=#6c8ebf;gradientColor=#ffffff;" parent="1" vertex="1">
          <mxGeometry x="1531" y="290" width="89" height="35" as="geometry"/>
        </mxCell>
        <mxCell id="GNG_iJOhKtFzYr-szhcq-73" value="&lt;b&gt;Course 2&lt;/b&gt;" style="rounded=0;whiteSpace=wrap;html=1;fillColor=#dae8fc;strokeColor=#6c8ebf;gradientColor=#ffffff;" parent="1" vertex="1">
          <mxGeometry x="1389.5" y="290" width="89" height="35" as="geometry"/>
        </mxCell>
        <mxCell id="GNG_iJOhKtFzYr-szhcq-75" value="" style="rounded=0;whiteSpace=wrap;html=1;fillColor=#f5f5f5;strokeColor=#666666;fontColor=#333333;" parent="1" vertex="1">
          <mxGeometry x="1757" y="114" width="390" height="410" as="geometry"/>
        </mxCell>
        <mxCell id="GNG_iJOhKtFzYr-szhcq-76" value="&lt;b&gt;&lt;font style=&quot;font-size: 15px&quot;&gt;Course 1 Feedback&lt;/font&gt;&lt;/b&gt;" style="text;html=1;strokeColor=none;fillColor=none;align=center;verticalAlign=middle;whiteSpace=wrap;rounded=0;" parent="1" vertex="1">
          <mxGeometry x="1802" y="154" width="300" height="20" as="geometry"/>
        </mxCell>
        <mxCell id="GNG_iJOhKtFzYr-szhcq-77" value="&lt;font style=&quot;font-size: 15px&quot;&gt;Question 1&lt;/font&gt;" style="text;html=1;strokeColor=none;fillColor=none;align=center;verticalAlign=middle;whiteSpace=wrap;rounded=0;" parent="1" vertex="1">
          <mxGeometry x="1800" y="231.5" width="84" height="25" as="geometry"/>
        </mxCell>
        <mxCell id="GNG_iJOhKtFzYr-szhcq-78" value="&lt;b&gt;Submit&lt;/b&gt;" style="rounded=0;whiteSpace=wrap;html=1;fillColor=#dae8fc;strokeColor=#6c8ebf;gradientColor=#ffffff;" parent="1" vertex="1">
          <mxGeometry x="1912" y="484" width="80" height="20" as="geometry"/>
        </mxCell>
        <mxCell id="GNG_iJOhKtFzYr-szhcq-79" value="&lt;font style=&quot;font-size: 15px&quot;&gt;Question 2&lt;/font&gt;" style="text;html=1;strokeColor=none;fillColor=none;align=center;verticalAlign=middle;whiteSpace=wrap;rounded=0;" parent="1" vertex="1">
          <mxGeometry x="1800" y="269" width="84" height="25" as="geometry"/>
        </mxCell>
        <mxCell id="GNG_iJOhKtFzYr-szhcq-80" value="&lt;font style=&quot;font-size: 15px&quot;&gt;Question 3&lt;/font&gt;" style="text;html=1;strokeColor=none;fillColor=none;align=center;verticalAlign=middle;whiteSpace=wrap;rounded=0;" parent="1" vertex="1">
          <mxGeometry x="1800" y="313.5" width="84" height="25" as="geometry"/>
        </mxCell>
        <mxCell id="GNG_iJOhKtFzYr-szhcq-81" value="&lt;font style=&quot;font-size: 15px&quot;&gt;Question 4&lt;/font&gt;" style="text;html=1;strokeColor=none;fillColor=none;align=center;verticalAlign=middle;whiteSpace=wrap;rounded=0;" parent="1" vertex="1">
          <mxGeometry x="1800" y="358" width="84" height="25" as="geometry"/>
        </mxCell>
        <mxCell id="GNG_iJOhKtFzYr-szhcq-82" value="&lt;font style=&quot;font-size: 15px&quot;&gt;Question 5&lt;/font&gt;" style="text;html=1;strokeColor=none;fillColor=none;align=center;verticalAlign=middle;whiteSpace=wrap;rounded=0;" parent="1" vertex="1">
          <mxGeometry x="1800" y="394.5" width="84" height="25" as="geometry"/>
        </mxCell>
        <mxCell id="GNG_iJOhKtFzYr-szhcq-83" value="&lt;font style=&quot;font-size: 15px&quot;&gt;Question 6&lt;/font&gt;" style="text;html=1;strokeColor=none;fillColor=none;align=center;verticalAlign=middle;whiteSpace=wrap;rounded=0;" parent="1" vertex="1">
          <mxGeometry x="1800" y="431.5" width="84" height="25" as="geometry"/>
        </mxCell>
        <mxCell id="GNG_iJOhKtFzYr-szhcq-84" value="" style="ellipse;whiteSpace=wrap;html=1;aspect=fixed;gradientColor=#ffffff;" parent="1" vertex="1">
          <mxGeometry x="1917" y="234" width="20" height="20" as="geometry"/>
        </mxCell>
        <mxCell id="GNG_iJOhKtFzYr-szhcq-85" value="" style="ellipse;whiteSpace=wrap;html=1;aspect=fixed;gradientColor=#ffffff;" parent="1" vertex="1">
          <mxGeometry x="1957" y="234" width="20" height="20" as="geometry"/>
        </mxCell>
        <mxCell id="GNG_iJOhKtFzYr-szhcq-86" value="" style="ellipse;whiteSpace=wrap;html=1;aspect=fixed;gradientColor=#ffffff;" parent="1" vertex="1">
          <mxGeometry x="1997" y="236.5" width="20" height="20" as="geometry"/>
        </mxCell>
        <mxCell id="GNG_iJOhKtFzYr-szhcq-87" value="" style="ellipse;whiteSpace=wrap;html=1;aspect=fixed;gradientColor=#ffffff;" parent="1" vertex="1">
          <mxGeometry x="2037" y="236.5" width="20" height="20" as="geometry"/>
        </mxCell>
        <mxCell id="GNG_iJOhKtFzYr-szhcq-88" value="" style="ellipse;whiteSpace=wrap;html=1;aspect=fixed;gradientColor=#ffffff;" parent="1" vertex="1">
          <mxGeometry x="2077" y="236.5" width="20" height="20" as="geometry"/>
        </mxCell>
        <mxCell id="GNG_iJOhKtFzYr-szhcq-89" value="" style="ellipse;whiteSpace=wrap;html=1;aspect=fixed;gradientColor=#ffffff;" parent="1" vertex="1">
          <mxGeometry x="1917" y="271.5" width="20" height="20" as="geometry"/>
        </mxCell>
        <mxCell id="GNG_iJOhKtFzYr-szhcq-90" value="" style="ellipse;whiteSpace=wrap;html=1;aspect=fixed;gradientColor=#ffffff;" parent="1" vertex="1">
          <mxGeometry x="1957" y="271.5" width="20" height="20" as="geometry"/>
        </mxCell>
        <mxCell id="GNG_iJOhKtFzYr-szhcq-91" value="" style="ellipse;whiteSpace=wrap;html=1;aspect=fixed;gradientColor=#ffffff;" parent="1" vertex="1">
          <mxGeometry x="1997" y="274" width="20" height="20" as="geometry"/>
        </mxCell>
        <mxCell id="GNG_iJOhKtFzYr-szhcq-92" value="" style="ellipse;whiteSpace=wrap;html=1;aspect=fixed;gradientColor=#ffffff;" parent="1" vertex="1">
          <mxGeometry x="2037" y="274" width="20" height="20" as="geometry"/>
        </mxCell>
        <mxCell id="GNG_iJOhKtFzYr-szhcq-93" value="" style="ellipse;whiteSpace=wrap;html=1;aspect=fixed;gradientColor=#ffffff;" parent="1" vertex="1">
          <mxGeometry x="2077" y="274" width="20" height="20" as="geometry"/>
        </mxCell>
        <mxCell id="GNG_iJOhKtFzYr-szhcq-94" value="" style="ellipse;whiteSpace=wrap;html=1;aspect=fixed;gradientColor=#ffffff;" parent="1" vertex="1">
          <mxGeometry x="1917" y="311.5" width="20" height="20" as="geometry"/>
        </mxCell>
        <mxCell id="GNG_iJOhKtFzYr-szhcq-95" value="" style="ellipse;whiteSpace=wrap;html=1;aspect=fixed;gradientColor=#ffffff;" parent="1" vertex="1">
          <mxGeometry x="1957" y="311.5" width="20" height="20" as="geometry"/>
        </mxCell>
        <mxCell id="GNG_iJOhKtFzYr-szhcq-96" value="" style="ellipse;whiteSpace=wrap;html=1;aspect=fixed;gradientColor=#ffffff;" parent="1" vertex="1">
          <mxGeometry x="1997" y="314" width="20" height="20" as="geometry"/>
        </mxCell>
        <mxCell id="GNG_iJOhKtFzYr-szhcq-97" value="" style="ellipse;whiteSpace=wrap;html=1;aspect=fixed;gradientColor=#ffffff;" parent="1" vertex="1">
          <mxGeometry x="2037" y="314" width="20" height="20" as="geometry"/>
        </mxCell>
        <mxCell id="GNG_iJOhKtFzYr-szhcq-98" value="" style="ellipse;whiteSpace=wrap;html=1;aspect=fixed;gradientColor=#ffffff;" parent="1" vertex="1">
          <mxGeometry x="2077" y="314" width="20" height="20" as="geometry"/>
        </mxCell>
        <mxCell id="GNG_iJOhKtFzYr-szhcq-99" value="" style="ellipse;whiteSpace=wrap;html=1;aspect=fixed;gradientColor=#ffffff;" parent="1" vertex="1">
          <mxGeometry x="1917" y="358" width="20" height="20" as="geometry"/>
        </mxCell>
        <mxCell id="GNG_iJOhKtFzYr-szhcq-100" value="" style="ellipse;whiteSpace=wrap;html=1;aspect=fixed;gradientColor=#ffffff;" parent="1" vertex="1">
          <mxGeometry x="1957" y="358" width="20" height="20" as="geometry"/>
        </mxCell>
        <mxCell id="GNG_iJOhKtFzYr-szhcq-101" value="" style="ellipse;whiteSpace=wrap;html=1;aspect=fixed;gradientColor=#ffffff;" parent="1" vertex="1">
          <mxGeometry x="1997" y="360.5" width="20" height="20" as="geometry"/>
        </mxCell>
        <mxCell id="GNG_iJOhKtFzYr-szhcq-102" value="" style="ellipse;whiteSpace=wrap;html=1;aspect=fixed;gradientColor=#ffffff;" parent="1" vertex="1">
          <mxGeometry x="2037" y="360.5" width="20" height="20" as="geometry"/>
        </mxCell>
        <mxCell id="GNG_iJOhKtFzYr-szhcq-103" value="" style="ellipse;whiteSpace=wrap;html=1;aspect=fixed;gradientColor=#ffffff;" parent="1" vertex="1">
          <mxGeometry x="2077" y="360.5" width="20" height="20" as="geometry"/>
        </mxCell>
        <mxCell id="GNG_iJOhKtFzYr-szhcq-104" value="" style="ellipse;whiteSpace=wrap;html=1;aspect=fixed;gradientColor=#ffffff;" parent="1" vertex="1">
          <mxGeometry x="1917" y="397" width="20" height="20" as="geometry"/>
        </mxCell>
        <mxCell id="GNG_iJOhKtFzYr-szhcq-105" value="" style="ellipse;whiteSpace=wrap;html=1;aspect=fixed;gradientColor=#ffffff;" parent="1" vertex="1">
          <mxGeometry x="1957" y="397" width="20" height="20" as="geometry"/>
        </mxCell>
        <mxCell id="GNG_iJOhKtFzYr-szhcq-106" value="" style="ellipse;whiteSpace=wrap;html=1;aspect=fixed;gradientColor=#ffffff;" parent="1" vertex="1">
          <mxGeometry x="1997" y="399.5" width="20" height="20" as="geometry"/>
        </mxCell>
        <mxCell id="GNG_iJOhKtFzYr-szhcq-107" value="" style="ellipse;whiteSpace=wrap;html=1;aspect=fixed;gradientColor=#ffffff;" parent="1" vertex="1">
          <mxGeometry x="2037" y="399.5" width="20" height="20" as="geometry"/>
        </mxCell>
        <mxCell id="GNG_iJOhKtFzYr-szhcq-108" value="" style="ellipse;whiteSpace=wrap;html=1;aspect=fixed;gradientColor=#ffffff;" parent="1" vertex="1">
          <mxGeometry x="2077" y="399.5" width="20" height="20" as="geometry"/>
        </mxCell>
        <mxCell id="GNG_iJOhKtFzYr-szhcq-109" value="" style="ellipse;whiteSpace=wrap;html=1;aspect=fixed;gradientColor=#ffffff;" parent="1" vertex="1">
          <mxGeometry x="1917" y="434" width="20" height="20" as="geometry"/>
        </mxCell>
        <mxCell id="GNG_iJOhKtFzYr-szhcq-110" value="" style="ellipse;whiteSpace=wrap;html=1;aspect=fixed;gradientColor=#ffffff;" parent="1" vertex="1">
          <mxGeometry x="1957" y="434" width="20" height="20" as="geometry"/>
        </mxCell>
        <mxCell id="GNG_iJOhKtFzYr-szhcq-111" value="" style="ellipse;whiteSpace=wrap;html=1;aspect=fixed;gradientColor=#ffffff;" parent="1" vertex="1">
          <mxGeometry x="1997" y="436.5" width="20" height="20" as="geometry"/>
        </mxCell>
        <mxCell id="GNG_iJOhKtFzYr-szhcq-112" value="" style="ellipse;whiteSpace=wrap;html=1;aspect=fixed;gradientColor=#ffffff;" parent="1" vertex="1">
          <mxGeometry x="2037" y="436.5" width="20" height="20" as="geometry"/>
        </mxCell>
        <mxCell id="GNG_iJOhKtFzYr-szhcq-113" value="" style="ellipse;whiteSpace=wrap;html=1;aspect=fixed;gradientColor=#ffffff;" parent="1" vertex="1">
          <mxGeometry x="2077" y="436.5" width="20" height="20" as="geometry"/>
        </mxCell>
        <mxCell id="GNG_iJOhKtFzYr-szhcq-114" value="&lt;font style=&quot;font-size: 15px&quot;&gt;1&lt;/font&gt;" style="text;html=1;strokeColor=none;fillColor=none;align=center;verticalAlign=middle;whiteSpace=wrap;rounded=0;" parent="1" vertex="1">
          <mxGeometry x="1917" y="204" width="20" height="20" as="geometry"/>
        </mxCell>
        <mxCell id="GNG_iJOhKtFzYr-szhcq-115" value="&lt;font style=&quot;font-size: 15px&quot;&gt;2&lt;/font&gt;" style="text;html=1;strokeColor=none;fillColor=none;align=center;verticalAlign=middle;whiteSpace=wrap;rounded=0;" parent="1" vertex="1">
          <mxGeometry x="1956" y="204" width="20" height="20" as="geometry"/>
        </mxCell>
        <mxCell id="GNG_iJOhKtFzYr-szhcq-116" value="&lt;font style=&quot;font-size: 15px&quot;&gt;3&lt;/font&gt;" style="text;html=1;strokeColor=none;fillColor=none;align=center;verticalAlign=middle;whiteSpace=wrap;rounded=0;" parent="1" vertex="1">
          <mxGeometry x="1997" y="204" width="20" height="20" as="geometry"/>
        </mxCell>
        <mxCell id="GNG_iJOhKtFzYr-szhcq-117" value="&lt;font style=&quot;font-size: 15px&quot;&gt;4&lt;/font&gt;" style="text;html=1;strokeColor=none;fillColor=none;align=center;verticalAlign=middle;whiteSpace=wrap;rounded=0;" parent="1" vertex="1">
          <mxGeometry x="2038" y="204" width="20" height="20" as="geometry"/>
        </mxCell>
        <mxCell id="GNG_iJOhKtFzYr-szhcq-118" value="&lt;font style=&quot;font-size: 15px&quot;&gt;5&lt;/font&gt;" style="text;html=1;strokeColor=none;fillColor=none;align=center;verticalAlign=middle;whiteSpace=wrap;rounded=0;" parent="1" vertex="1">
          <mxGeometry x="2079" y="204" width="20" height="20" as="geometry"/>
        </mxCell>
        <mxCell id="GNG_iJOhKtFzYr-szhcq-119" value="" style="triangle;whiteSpace=wrap;html=1;rounded=0;strokeColor=#000000;fillColor=#030303;gradientColor=none;rotation=91;" parent="1" vertex="1">
          <mxGeometry x="1010" y="405.5" width="10" height="10" as="geometry"/>
        </mxCell>
        <mxCell id="GNG_iJOhKtFzYr-szhcq-124" value="" style="endArrow=none;html=1;" parent="1" target="GNG_iJOhKtFzYr-szhcq-18" edge="1">
          <mxGeometry width="50" height="50" relative="1" as="geometry">
            <mxPoint x="1010" y="423" as="sourcePoint"/>
            <mxPoint x="1010" y="403" as="targetPoint"/>
          </mxGeometry>
        </mxCell>
        <mxCell id="GNG_iJOhKtFzYr-szhcq-127" value="" style="rounded=0;whiteSpace=wrap;html=1;fillColor=#f5f5f5;strokeColor=#666666;fontColor=#333333;" parent="1" vertex="1">
          <mxGeometry x="1196" y="742" width="470" height="250" as="geometry"/>
        </mxCell>
        <mxCell id="GNG_iJOhKtFzYr-szhcq-128" value="&lt;b&gt;&lt;font style=&quot;font-size: 15px&quot;&gt;Courses&lt;/font&gt;&lt;/b&gt;" style="text;html=1;strokeColor=none;fillColor=none;align=center;verticalAlign=middle;whiteSpace=wrap;rounded=0;" parent="1" vertex="1">
          <mxGeometry x="1281" y="789.5" width="300" height="20" as="geometry"/>
        </mxCell>
        <mxCell id="GNG_iJOhKtFzYr-szhcq-129" value="&lt;b&gt;Course 5&lt;/b&gt;" style="rounded=0;whiteSpace=wrap;html=1;fillColor=#dae8fc;strokeColor=#6c8ebf;gradientColor=#ffffff;" parent="1" vertex="1">
          <mxGeometry x="1456" y="922.5" width="89" height="35" as="geometry"/>
        </mxCell>
        <mxCell id="GNG_iJOhKtFzYr-szhcq-130" value="&lt;b&gt;Course 4&lt;/b&gt;" style="rounded=0;whiteSpace=wrap;html=1;fillColor=#dae8fc;strokeColor=#6c8ebf;gradientColor=#ffffff;" parent="1" vertex="1">
          <mxGeometry x="1316.5" y="922.5" width="92" height="38" as="geometry"/>
        </mxCell>
        <mxCell id="GNG_iJOhKtFzYr-szhcq-131" value="&lt;b&gt;Course 1&lt;/b&gt;" style="rounded=0;whiteSpace=wrap;html=1;fillColor=#dae8fc;strokeColor=#6c8ebf;gradientColor=#ffffff;" parent="1" vertex="1">
          <mxGeometry x="1258" y="849.5" width="89" height="35" as="geometry"/>
        </mxCell>
        <mxCell id="GNG_iJOhKtFzYr-szhcq-132" value="&lt;b&gt;Course 3&lt;/b&gt;" style="rounded=0;whiteSpace=wrap;html=1;fillColor=#dae8fc;strokeColor=#6c8ebf;gradientColor=#ffffff;" parent="1" vertex="1">
          <mxGeometry x="1531" y="849.5" width="89" height="35" as="geometry"/>
        </mxCell>
        <mxCell id="GNG_iJOhKtFzYr-szhcq-133" value="&lt;b&gt;Course 2&lt;/b&gt;" style="rounded=0;whiteSpace=wrap;html=1;fillColor=#dae8fc;strokeColor=#6c8ebf;gradientColor=#ffffff;" parent="1" vertex="1">
          <mxGeometry x="1389.5" y="849.5" width="89" height="35" as="geometry"/>
        </mxCell>
        <mxCell id="GNG_iJOhKtFzYr-szhcq-178" value="" style="rounded=0;whiteSpace=wrap;html=1;fillColor=#f5f5f5;strokeColor=#666666;fontColor=#333333;" parent="1" vertex="1">
          <mxGeometry x="1757" y="662" width="343" height="448" as="geometry"/>
        </mxCell>
        <mxCell id="GNG_iJOhKtFzYr-szhcq-179" value="&lt;b&gt;&lt;font style=&quot;font-size: 15px&quot;&gt;Course 1 Rating&lt;/font&gt;&lt;/b&gt;" style="text;html=1;strokeColor=none;fillColor=none;align=center;verticalAlign=middle;whiteSpace=wrap;rounded=0;" parent="1" vertex="1">
          <mxGeometry x="1767" y="702" width="300" height="20" as="geometry"/>
        </mxCell>
        <mxCell id="GNG_iJOhKtFzYr-szhcq-180" value="&lt;font style=&quot;font-size: 15px&quot;&gt;Question 1&lt;/font&gt;" style="text;html=1;strokeColor=none;fillColor=none;align=center;verticalAlign=middle;whiteSpace=wrap;rounded=0;" parent="1" vertex="1">
          <mxGeometry x="1801" y="766.5" width="84" height="25" as="geometry"/>
        </mxCell>
        <mxCell id="GNG_iJOhKtFzYr-szhcq-181" value="&lt;b&gt;Back&lt;/b&gt;" style="rounded=0;whiteSpace=wrap;html=1;fillColor=#dae8fc;strokeColor=#6c8ebf;gradientColor=#ffffff;" parent="1" vertex="1">
          <mxGeometry x="1818" y="1070" width="80" height="20" as="geometry"/>
        </mxCell>
        <mxCell id="GNG_iJOhKtFzYr-szhcq-182" value="&lt;font style=&quot;font-size: 15px&quot;&gt;Question 2&lt;/font&gt;" style="text;html=1;strokeColor=none;fillColor=none;align=center;verticalAlign=middle;whiteSpace=wrap;rounded=0;" parent="1" vertex="1">
          <mxGeometry x="1800" y="799" width="84" height="25" as="geometry"/>
        </mxCell>
        <mxCell id="GNG_iJOhKtFzYr-szhcq-183" value="&lt;font style=&quot;font-size: 15px&quot;&gt;Question 3&lt;/font&gt;" style="text;html=1;strokeColor=none;fillColor=none;align=center;verticalAlign=middle;whiteSpace=wrap;rounded=0;" parent="1" vertex="1">
          <mxGeometry x="1800" y="843.5" width="84" height="25" as="geometry"/>
        </mxCell>
        <mxCell id="GNG_iJOhKtFzYr-szhcq-184" value="&lt;font style=&quot;font-size: 15px&quot;&gt;Question 4&lt;/font&gt;" style="text;html=1;strokeColor=none;fillColor=none;align=center;verticalAlign=middle;whiteSpace=wrap;rounded=0;" parent="1" vertex="1">
          <mxGeometry x="1800" y="888" width="84" height="25" as="geometry"/>
        </mxCell>
        <mxCell id="GNG_iJOhKtFzYr-szhcq-185" value="&lt;font style=&quot;font-size: 15px&quot;&gt;Question 5&lt;/font&gt;" style="text;html=1;strokeColor=none;fillColor=none;align=center;verticalAlign=middle;whiteSpace=wrap;rounded=0;" parent="1" vertex="1">
          <mxGeometry x="1800" y="924.5" width="84" height="25" as="geometry"/>
        </mxCell>
        <mxCell id="GNG_iJOhKtFzYr-szhcq-186" value="&lt;font style=&quot;font-size: 15px&quot;&gt;Question 6&lt;/font&gt;" style="text;html=1;strokeColor=none;fillColor=none;align=center;verticalAlign=middle;whiteSpace=wrap;rounded=0;" parent="1" vertex="1">
          <mxGeometry x="1800" y="961.5" width="84" height="25" as="geometry"/>
        </mxCell>
        <mxCell id="GNG_iJOhKtFzYr-szhcq-188" value="&lt;font style=&quot;font-size: 15px&quot;&gt;&lt;b&gt;Total Rating&lt;/b&gt;&lt;/font&gt;" style="text;html=1;strokeColor=none;fillColor=none;align=center;verticalAlign=middle;whiteSpace=wrap;rounded=0;" parent="1" vertex="1">
          <mxGeometry x="1788" y="1017" width="108" height="25" as="geometry"/>
        </mxCell>
        <mxCell id="GNG_iJOhKtFzYr-szhcq-189" value="&lt;b&gt;Logout&lt;/b&gt;" style="rounded=0;whiteSpace=wrap;html=1;fillColor=#dae8fc;strokeColor=#6c8ebf;gradientColor=#ffffff;" parent="1" vertex="1">
          <mxGeometry x="1956" y="1070" width="80" height="20" as="geometry"/>
        </mxCell>
        <mxCell id="GNG_iJOhKtFzYr-szhcq-191" value="&lt;font size=&quot;1&quot;&gt;&lt;b style=&quot;font-size: 15px&quot;&gt;10&lt;/b&gt;&lt;/font&gt;" style="text;html=1;strokeColor=none;fillColor=none;align=center;verticalAlign=middle;whiteSpace=wrap;rounded=0;" parent="1" vertex="1">
          <mxGeometry x="1932" y="764" width="40" height="20" as="geometry"/>
        </mxCell>
        <mxCell id="GNG_iJOhKtFzYr-szhcq-192" value="&lt;font size=&quot;1&quot;&gt;&lt;b style=&quot;font-size: 15px&quot;&gt;10&lt;/b&gt;&lt;/font&gt;" style="text;html=1;strokeColor=none;fillColor=none;align=center;verticalAlign=middle;whiteSpace=wrap;rounded=0;" parent="1" vertex="1">
          <mxGeometry x="1932" y="807" width="40" height="20" as="geometry"/>
        </mxCell>
        <mxCell id="GNG_iJOhKtFzYr-szhcq-193" value="&lt;font size=&quot;1&quot;&gt;&lt;b style=&quot;font-size: 15px&quot;&gt;10&lt;/b&gt;&lt;/font&gt;" style="text;html=1;strokeColor=none;fillColor=none;align=center;verticalAlign=middle;whiteSpace=wrap;rounded=0;" parent="1" vertex="1">
          <mxGeometry x="1932" y="850" width="40" height="20" as="geometry"/>
        </mxCell>
        <mxCell id="GNG_iJOhKtFzYr-szhcq-194" value="&lt;font size=&quot;1&quot;&gt;&lt;b style=&quot;font-size: 15px&quot;&gt;10&lt;/b&gt;&lt;/font&gt;" style="text;html=1;strokeColor=none;fillColor=none;align=center;verticalAlign=middle;whiteSpace=wrap;rounded=0;" parent="1" vertex="1">
          <mxGeometry x="1932" y="891" width="40" height="20" as="geometry"/>
        </mxCell>
        <mxCell id="GNG_iJOhKtFzYr-szhcq-195" value="&lt;font size=&quot;1&quot;&gt;&lt;b style=&quot;font-size: 15px&quot;&gt;10&lt;/b&gt;&lt;/font&gt;" style="text;html=1;strokeColor=none;fillColor=none;align=center;verticalAlign=middle;whiteSpace=wrap;rounded=0;" parent="1" vertex="1">
          <mxGeometry x="1932" y="927.5" width="40" height="20" as="geometry"/>
        </mxCell>
        <mxCell id="GNG_iJOhKtFzYr-szhcq-196" value="&lt;font size=&quot;1&quot;&gt;&lt;b style=&quot;font-size: 15px&quot;&gt;10&lt;/b&gt;&lt;/font&gt;" style="text;html=1;strokeColor=none;fillColor=none;align=center;verticalAlign=middle;whiteSpace=wrap;rounded=0;" parent="1" vertex="1">
          <mxGeometry x="1932" y="964" width="40" height="20" as="geometry"/>
        </mxCell>
        <mxCell id="GNG_iJOhKtFzYr-szhcq-197" value="&lt;font size=&quot;1&quot;&gt;&lt;b style=&quot;font-size: 19px&quot;&gt;10&lt;/b&gt;&lt;/font&gt;" style="text;html=1;strokeColor=none;fillColor=none;align=center;verticalAlign=middle;whiteSpace=wrap;rounded=0;" parent="1" vertex="1">
          <mxGeometry x="1932" y="1017" width="40" height="20" as="geometry"/>
        </mxCell>
        <mxCell id="GNG_iJOhKtFzYr-szhcq-198" value="&lt;b&gt;Admin&lt;/b&gt;" style="rounded=0;whiteSpace=wrap;html=1;fillColor=#dae8fc;strokeColor=#6c8ebf;gradientColor=#ffffff;" parent="1" vertex="1">
          <mxGeometry x="370" y="629.5" width="120" height="60" as="geometry"/>
        </mxCell>
        <mxCell id="GNG_iJOhKtFzYr-szhcq-199" value="" style="rounded=0;whiteSpace=wrap;html=1;fillColor=#f5f5f5;strokeColor=#666666;fontColor=#333333;" parent="1" vertex="1">
          <mxGeometry x="635.5" y="1231" width="470" height="231" as="geometry"/>
        </mxCell>
        <mxCell id="GNG_iJOhKtFzYr-szhcq-200" value="&lt;b&gt;&lt;font style=&quot;font-size: 15px&quot;&gt;Admin&lt;/font&gt;&lt;/b&gt;" style="text;html=1;strokeColor=none;fillColor=none;align=center;verticalAlign=middle;whiteSpace=wrap;rounded=0;" parent="1" vertex="1">
          <mxGeometry x="720.5" y="1262" width="299" height="20" as="geometry"/>
        </mxCell>
        <mxCell id="GNG_iJOhKtFzYr-szhcq-201" value="" style="rounded=0;whiteSpace=wrap;html=1;gradientColor=#ffffff;" parent="1" vertex="1">
          <mxGeometry x="835.0999755859375" y="1327" width="200" height="25" as="geometry"/>
        </mxCell>
        <mxCell id="GNG_iJOhKtFzYr-szhcq-202" value="" style="rounded=0;whiteSpace=wrap;html=1;gradientColor=#ffffff;" parent="1" vertex="1">
          <mxGeometry x="835.0999755859375" y="1372" width="200" height="25" as="geometry"/>
        </mxCell>
        <mxCell id="GNG_iJOhKtFzYr-szhcq-203" value="&lt;font style=&quot;font-size: 15px&quot;&gt;Username :&lt;/font&gt;" style="text;html=1;strokeColor=none;fillColor=none;align=center;verticalAlign=middle;whiteSpace=wrap;rounded=0;" parent="1" vertex="1">
          <mxGeometry x="678.0999755859375" y="1327" width="84" height="25" as="geometry"/>
        </mxCell>
        <mxCell id="GNG_iJOhKtFzYr-szhcq-204" value="&lt;font style=&quot;font-size: 15px&quot;&gt;Password :&lt;/font&gt;" style="text;html=1;strokeColor=none;fillColor=none;align=center;verticalAlign=middle;whiteSpace=wrap;rounded=0;" parent="1" vertex="1">
          <mxGeometry x="680.0999755859375" y="1372" width="84" height="25" as="geometry"/>
        </mxCell>
        <mxCell id="GNG_iJOhKtFzYr-szhcq-205" value="&lt;b&gt;Submit&lt;/b&gt;" style="rounded=0;whiteSpace=wrap;html=1;fillColor=#dae8fc;strokeColor=#6c8ebf;gradientColor=#ffffff;" parent="1" vertex="1">
          <mxGeometry x="830" y="1424.5" width="80" height="20" as="geometry"/>
        </mxCell>
        <mxCell id="GNG_iJOhKtFzYr-szhcq-210" value="" style="rounded=0;whiteSpace=wrap;html=1;fillColor=#f5f5f5;strokeColor=#666666;fontColor=#333333;" parent="1" vertex="1">
          <mxGeometry x="1250" y="1216" width="419" height="250" as="geometry"/>
        </mxCell>
        <mxCell id="GNG_iJOhKtFzYr-szhcq-211" value="&lt;b&gt;&lt;font style=&quot;font-size: 15px&quot;&gt;Admin Menu&lt;/font&gt;&lt;/b&gt;" style="text;html=1;strokeColor=none;fillColor=none;align=center;verticalAlign=middle;whiteSpace=wrap;rounded=0;" parent="1" vertex="1">
          <mxGeometry x="1298.5" y="1252" width="300" height="20" as="geometry"/>
        </mxCell>
        <mxCell id="GNG_iJOhKtFzYr-szhcq-214" value="&lt;b&gt;Add Faculty&lt;/b&gt;" style="rounded=0;whiteSpace=wrap;html=1;fillColor=#dae8fc;strokeColor=#6c8ebf;gradientColor=#ffffff;" parent="1" vertex="1">
          <mxGeometry x="1319.5" y="1296" width="89" height="35" as="geometry"/>
        </mxCell>
        <mxCell id="GNG_iJOhKtFzYr-szhcq-216" value="&lt;b&gt;Remove Faculty&lt;/b&gt;" style="rounded=0;whiteSpace=wrap;html=1;fillColor=#dae8fc;strokeColor=#6c8ebf;gradientColor=#ffffff;" parent="1" vertex="1">
          <mxGeometry x="1486.5" y="1359.5" width="89" height="35" as="geometry"/>
        </mxCell>
        <mxCell id="GNG_iJOhKtFzYr-szhcq-217" value="" style="rounded=0;whiteSpace=wrap;html=1;fillColor=#f5f5f5;strokeColor=#666666;fontColor=#333333;" parent="1" vertex="1">
          <mxGeometry x="1710" y="1215.5" width="470" height="251" as="geometry"/>
        </mxCell>
        <mxCell id="GNG_iJOhKtFzYr-szhcq-218" value="&lt;span style=&quot;font-size: 15px&quot;&gt;&lt;b&gt;Add Faculty&lt;/b&gt;&lt;/span&gt;" style="text;html=1;strokeColor=none;fillColor=none;align=center;verticalAlign=middle;whiteSpace=wrap;rounded=0;" parent="1" vertex="1">
          <mxGeometry x="1794.800048828125" y="1236.5" width="300" height="20" as="geometry"/>
        </mxCell>
        <mxCell id="GNG_iJOhKtFzYr-szhcq-220" value="" style="rounded=0;whiteSpace=wrap;html=1;gradientColor=#ffffff;" parent="1" vertex="1">
          <mxGeometry x="1911.300048828125" y="1283" width="200" height="25" as="geometry"/>
        </mxCell>
        <mxCell id="GNG_iJOhKtFzYr-szhcq-224" value="&lt;font style=&quot;font-size: 15px&quot;&gt;Faculty ID :&lt;/font&gt;" style="text;html=1;strokeColor=none;fillColor=none;align=center;verticalAlign=middle;whiteSpace=wrap;rounded=0;" parent="1" vertex="1">
          <mxGeometry x="1756.300048828125" y="1283" width="84" height="25" as="geometry"/>
        </mxCell>
        <mxCell id="GNG_iJOhKtFzYr-szhcq-227" value="&lt;b&gt;Add&lt;/b&gt;" style="rounded=0;whiteSpace=wrap;html=1;fillColor=#dae8fc;strokeColor=#6c8ebf;gradientColor=#ffffff;" parent="1" vertex="1">
          <mxGeometry x="2019.800048828125" y="1426.5" width="80" height="20" as="geometry"/>
        </mxCell>
        <mxCell id="GNG_iJOhKtFzYr-szhcq-229" value="" style="endArrow=none;html=1;" parent="1" edge="1">
          <mxGeometry width="50" height="50" relative="1" as="geometry">
            <mxPoint x="2089.800048828125" y="1353.5" as="sourcePoint"/>
            <mxPoint x="2089.800048828125" y="1353.5" as="targetPoint"/>
          </mxGeometry>
        </mxCell>
        <mxCell id="GNG_iJOhKtFzYr-szhcq-230" value="&lt;span style=&quot;font-size: 15px&quot;&gt;Password:&lt;/span&gt;" style="text;html=1;strokeColor=none;fillColor=none;align=center;verticalAlign=middle;whiteSpace=wrap;rounded=0;" parent="1" vertex="1">
          <mxGeometry x="1756.800048828125" y="1326" width="84" height="25" as="geometry"/>
        </mxCell>
        <mxCell id="GNG_iJOhKtFzYr-szhcq-231" value="Text" style="text;html=1;resizable=0;points=[];autosize=1;align=left;verticalAlign=top;spacingTop=-4;" parent="1" vertex="1">
          <mxGeometry x="2637" y="1269" width="40" height="20" as="geometry"/>
        </mxCell>
        <mxCell id="GNG_iJOhKtFzYr-szhcq-232" value="" style="rounded=0;whiteSpace=wrap;html=1;gradientColor=#ffffff;" parent="1" vertex="1">
          <mxGeometry x="1911.800048828125" y="1330.5" width="200" height="25" as="geometry"/>
        </mxCell>
        <mxCell id="GNG_iJOhKtFzYr-szhcq-234" value="&lt;b&gt;View Faculty&lt;/b&gt;" style="rounded=0;whiteSpace=wrap;html=1;fillColor=#dae8fc;strokeColor=#6c8ebf;gradientColor=#ffffff;" parent="1" vertex="1">
          <mxGeometry x="1486.5" y="1297.5" width="89" height="35" as="geometry"/>
        </mxCell>
        <mxCell id="GNG_iJOhKtFzYr-szhcq-236" value="&lt;b&gt;Log out&lt;/b&gt;" style="rounded=0;whiteSpace=wrap;html=1;fillColor=#f8cecc;strokeColor=#b85450;" parent="1" vertex="1">
          <mxGeometry x="1408.5" y="1419.5" width="80" height="20" as="geometry"/>
        </mxCell>
        <mxCell id="GNG_iJOhKtFzYr-szhcq-237" value="&lt;b&gt;Reset&lt;/b&gt;" style="rounded=0;whiteSpace=wrap;html=1;fillColor=#90A9C2;strokeColor=#314354;fontColor=#ffffff;gradientColor=none;gradientDirection=west;" parent="1" vertex="1">
          <mxGeometry x="1909.800048828125" y="1426.5" width="80" height="20" as="geometry"/>
        </mxCell>
        <mxCell id="GNG_iJOhKtFzYr-szhcq-238" value="" style="rounded=0;whiteSpace=wrap;html=1;fillColor=#f5f5f5;strokeColor=#666666;fontColor=#333333;" parent="1" vertex="1">
          <mxGeometry x="2247.5" y="1231" width="470" height="207" as="geometry"/>
        </mxCell>
        <mxCell id="GNG_iJOhKtFzYr-szhcq-239" value="&lt;b&gt;&lt;font style=&quot;font-size: 15px&quot;&gt;Remove Faculty&lt;/font&gt;&lt;/b&gt;" style="text;html=1;strokeColor=none;fillColor=none;align=center;verticalAlign=middle;whiteSpace=wrap;rounded=0;" parent="1" vertex="1">
          <mxGeometry x="2335.800048828125" y="1271" width="300" height="20" as="geometry"/>
        </mxCell>
        <mxCell id="GNG_iJOhKtFzYr-szhcq-240" value="&lt;b&gt;Submit&lt;/b&gt;" style="rounded=0;whiteSpace=wrap;html=1;fillColor=#dae8fc;strokeColor=#6c8ebf;gradientColor=#ffffff;" parent="1" vertex="1">
          <mxGeometry x="2574.800048828125" y="1390" width="80" height="20" as="geometry"/>
        </mxCell>
        <mxCell id="GNG_iJOhKtFzYr-szhcq-241" value="&lt;span style=&quot;font-size: 15px&quot;&gt;Faculty ID&lt;/span&gt;" style="text;html=1;strokeColor=none;fillColor=none;align=center;verticalAlign=middle;whiteSpace=wrap;rounded=0;" parent="1" vertex="1">
          <mxGeometry x="2309.800048828125" y="1307.5" width="84" height="25" as="geometry"/>
        </mxCell>
        <mxCell id="GNG_iJOhKtFzYr-szhcq-242" value="" style="rounded=0;whiteSpace=wrap;html=1;gradientColor=#ffffff;" parent="1" vertex="1">
          <mxGeometry x="2464.800048828125" y="1307" width="200" height="25" as="geometry"/>
        </mxCell>
        <mxCell id="GNG_iJOhKtFzYr-szhcq-243" value="" style="triangle;whiteSpace=wrap;html=1;rounded=0;strokeColor=#000000;fillColor=#030303;gradientColor=none;rotation=91;" parent="1" vertex="1">
          <mxGeometry x="2644.800048828125" y="1347.5" width="10" height="10" as="geometry"/>
        </mxCell>
        <mxCell id="GNG_iJOhKtFzYr-szhcq-244" value="&lt;b&gt;Back&lt;/b&gt;" style="rounded=0;whiteSpace=wrap;html=1;fillColor=#90A9C2;strokeColor=#314354;fontColor=#ffffff;gradientColor=none;gradientDirection=west;" parent="1" vertex="1">
          <mxGeometry x="2464.800048828125" y="1390" width="80" height="20" as="geometry"/>
        </mxCell>
        <mxCell id="GNG_iJOhKtFzYr-szhcq-245" value="&lt;b&gt;Home&lt;/b&gt;" style="rounded=0;whiteSpace=wrap;html=1;fillColor=#f8cecc;strokeColor=#b85450;" parent="1" vertex="1">
          <mxGeometry x="1398.5" y="423" width="80" height="20" as="geometry"/>
        </mxCell>
        <mxCell id="GNG_iJOhKtFzYr-szhcq-246" value="" style="triangle;whiteSpace=wrap;html=1;rounded=0;strokeColor=#000000;fillColor=#030303;gradientColor=none;rotation=91;" parent="1" vertex="1">
          <mxGeometry x="2093.800048828125" y="1291" width="10" height="10" as="geometry"/>
        </mxCell>
        <mxCell id="GNG_iJOhKtFzYr-szhcq-247" value="&lt;b&gt;Add Courses&lt;/b&gt;" style="rounded=0;whiteSpace=wrap;html=1;fillColor=#dae8fc;strokeColor=#6c8ebf;gradientColor=#ffffff;" parent="1" vertex="1">
          <mxGeometry x="1319.5" y="1355" width="89" height="35" as="geometry"/>
        </mxCell>
        <mxCell id="GNG_iJOhKtFzYr-szhcq-248" value="" style="rounded=0;whiteSpace=wrap;html=1;fillColor=#f5f5f5;strokeColor=#666666;fontColor=#333333;" parent="1" vertex="1">
          <mxGeometry x="1715" y="1535.5" width="470" height="251" as="geometry"/>
        </mxCell>
        <mxCell id="GNG_iJOhKtFzYr-szhcq-249" value="&lt;b&gt;&lt;font style=&quot;font-size: 15px&quot;&gt;Add Courses&lt;/font&gt;&lt;/b&gt;" style="text;html=1;strokeColor=none;fillColor=none;align=center;verticalAlign=middle;whiteSpace=wrap;rounded=0;" parent="1" vertex="1">
          <mxGeometry x="1799.800048828125" y="1556.5" width="300" height="20" as="geometry"/>
        </mxCell>
        <mxCell id="GNG_iJOhKtFzYr-szhcq-250" value="" style="rounded=0;whiteSpace=wrap;html=1;gradientColor=#ffffff;" parent="1" vertex="1">
          <mxGeometry x="1916.300048828125" y="1603" width="200" height="25" as="geometry"/>
        </mxCell>
        <mxCell id="GNG_iJOhKtFzYr-szhcq-251" value="" style="rounded=0;whiteSpace=wrap;html=1;gradientColor=#ffffff;" parent="1" vertex="1">
          <mxGeometry x="1914.800048828125" y="1648.5" width="200" height="25" as="geometry"/>
        </mxCell>
        <mxCell id="GNG_iJOhKtFzYr-szhcq-252" value="&lt;font style=&quot;font-size: 15px&quot;&gt;Faculty ID :&lt;/font&gt;" style="text;html=1;strokeColor=none;fillColor=none;align=center;verticalAlign=middle;whiteSpace=wrap;rounded=0;" parent="1" vertex="1">
          <mxGeometry x="1761.300048828125" y="1603" width="84" height="25" as="geometry"/>
        </mxCell>
        <mxCell id="GNG_iJOhKtFzYr-szhcq-253" value="&lt;span style=&quot;font-size: 15px&quot;&gt;Sem :&lt;/span&gt;" style="text;html=1;strokeColor=none;fillColor=none;align=center;verticalAlign=middle;whiteSpace=wrap;rounded=0;" parent="1" vertex="1">
          <mxGeometry x="1759.800048828125" y="1646" width="84" height="25" as="geometry"/>
        </mxCell>
        <mxCell id="GNG_iJOhKtFzYr-szhcq-254" value="&lt;b&gt;Submit&lt;/b&gt;" style="rounded=0;whiteSpace=wrap;html=1;fillColor=#dae8fc;strokeColor=#6c8ebf;gradientColor=#ffffff;" parent="1" vertex="1">
          <mxGeometry x="2024.800048828125" y="1746.5" width="80" height="20" as="geometry"/>
        </mxCell>
        <mxCell id="GNG_iJOhKtFzYr-szhcq-255" value="" style="triangle;whiteSpace=wrap;html=1;rounded=0;strokeColor=#000000;fillColor=#030303;gradientColor=none;rotation=91;" parent="1" vertex="1">
          <mxGeometry x="2094.800048828125" y="1656" width="10" height="10" as="geometry"/>
        </mxCell>
        <mxCell id="GNG_iJOhKtFzYr-szhcq-256" value="" style="endArrow=none;html=1;" parent="1" target="GNG_iJOhKtFzYr-szhcq-251" edge="1">
          <mxGeometry width="50" height="50" relative="1" as="geometry">
            <mxPoint x="2094.800048828125" y="1673.5" as="sourcePoint"/>
            <mxPoint x="2094.800048828125" y="1653.5" as="targetPoint"/>
          </mxGeometry>
        </mxCell>
        <mxCell id="GNG_iJOhKtFzYr-szhcq-257" value="&lt;span style=&quot;font-size: 15px&quot;&gt;Courses :&lt;/span&gt;" style="text;html=1;strokeColor=none;fillColor=none;align=center;verticalAlign=middle;whiteSpace=wrap;rounded=0;" parent="1" vertex="1">
          <mxGeometry x="1759.800048828125" y="1692" width="84" height="25" as="geometry"/>
        </mxCell>
        <mxCell id="GNG_iJOhKtFzYr-szhcq-258" value="" style="rounded=0;whiteSpace=wrap;html=1;gradientColor=#ffffff;" parent="1" vertex="1">
          <mxGeometry x="1914.800048828125" y="1696.5" width="200" height="25" as="geometry"/>
        </mxCell>
        <mxCell id="GNG_iJOhKtFzYr-szhcq-259" value="" style="triangle;whiteSpace=wrap;html=1;rounded=0;strokeColor=#000000;fillColor=#030303;gradientColor=none;rotation=91;" parent="1" vertex="1">
          <mxGeometry x="2094.800048828125" y="1704" width="10" height="10" as="geometry"/>
        </mxCell>
        <mxCell id="GNG_iJOhKtFzYr-szhcq-260" value="&lt;b&gt;Reset&lt;/b&gt;" style="rounded=0;whiteSpace=wrap;html=1;fillColor=#90A9C2;strokeColor=#314354;fontColor=#ffffff;gradientColor=none;gradientDirection=west;" parent="1" vertex="1">
          <mxGeometry x="1914.800048828125" y="1746.5" width="80" height="20" as="geometry"/>
        </mxCell>
        <mxCell id="GNG_iJOhKtFzYr-szhcq-262" value="&lt;span style=&quot;font-size: 15px&quot;&gt;&lt;span style=&quot;font-weight: normal&quot;&gt;Confirm Password:&lt;/span&gt;&lt;/span&gt;" style="text;html=1;strokeColor=none;fillColor=none;align=center;verticalAlign=middle;whiteSpace=wrap;rounded=0;fontStyle=1" parent="1" vertex="1">
          <mxGeometry x="1730" y="1371" width="140" height="25" as="geometry"/>
        </mxCell>
        <mxCell id="GNG_iJOhKtFzYr-szhcq-263" value="" style="rounded=0;whiteSpace=wrap;html=1;gradientColor=#ffffff;" parent="1" vertex="1">
          <mxGeometry x="1914.300048828125" y="1375" width="200" height="25" as="geometry"/>
        </mxCell>
        <mxCell id="GNG_iJOhKtFzYr-szhcq-264" value="" style="rounded=0;whiteSpace=wrap;html=1;gradientColor=#ffffff;" parent="1" vertex="1">
          <mxGeometry x="833.0999755859375" y="858" width="200" height="25" as="geometry"/>
        </mxCell>
        <mxCell id="GNG_iJOhKtFzYr-szhcq-265" value="&lt;font style=&quot;font-size: 15px&quot;&gt;Password :&lt;/font&gt;" style="text;html=1;strokeColor=none;fillColor=none;align=center;verticalAlign=middle;whiteSpace=wrap;rounded=0;" parent="1" vertex="1">
          <mxGeometry x="710.0999755859375" y="856" width="84" height="25" as="geometry"/>
        </mxCell>
        <mxCell id="83ZdutQSLlugN2S2xTHL-1" value="&lt;span style=&quot;font-size: 15px&quot;&gt;Courses :&lt;/span&gt;" style="text;html=1;strokeColor=none;fillColor=none;align=center;verticalAlign=middle;whiteSpace=wrap;rounded=0;" vertex="1" parent="1">
          <mxGeometry x="2309.800048828125" y="1342.5" width="84" height="25" as="geometry"/>
        </mxCell>
        <mxCell id="83ZdutQSLlugN2S2xTHL-2" value="" style="rounded=0;whiteSpace=wrap;html=1;gradientColor=#ffffff;" vertex="1" parent="1">
          <mxGeometry x="2464.800048828125" y="1343" width="200" height="25" as="geometry"/>
        </mxCell>
      </root>
    </mxGraphModel>
  </diagram>
</mxfile>
